<?xml version="1.0" standalone="no"?>
<!DOCTYPE svg PUBLIC "-//W3C//DTD SVG 20010904//EN"
 "http://www.w3.org/TR/2001/REC-SVG-20010904/DTD/svg10.dtd">
<svg version="1.0" xmlns="http://www.w3.org/2000/svg"
 width="512.000000pt" height="512.000000pt" viewBox="0 0 512.000000 512.000000"
 preserveAspectRatio="xMidYMid meet">

<g transform="translate(0.000000,512.000000) scale(0.100000,-0.100000)"
fill="#000000" stroke="none">
<path d="M2455 4804 c-478 -27 -930 -199 -1295 -491 -468 -374 -771 -936 -829
-1537 -49 -503 84 -1031 367 -1451 81 -121 186 -255 200 -255 4 0 18 28 31 63
90 235 268 486 469 663 143 126 353 257 494 309 l48 18 -88 83 c-147 138 -246
304 -299 502 -23 85 -26 116 -26 257 0 141 3 171 26 258 99 370 381 649 755
748 99 27 303 36 410 19 419 -67 744 -366 853 -785 20 -76 23 -114 23 -245 -1
-135 -4 -168 -27 -255 -32 -120 -107 -275 -177 -367 -28 -37 -86 -100 -129
-140 l-78 -72 95 -42 c397 -180 733 -521 894 -909 24 -58 48 -103 53 -102 15
5 140 162 199 252 384 579 478 1290 259 1949 -207 623 -680 1125 -1293 1371
-286 115 -643 175 -935 159z"/>
<path d="M2434 3670 c-72 -13 -174 -51 -241 -91 -78 -46 -209 -179 -256 -259
-134 -232 -126 -526 22 -752 153 -234 437 -362 708 -318 423 67 696 482 588
895 -9 33 -34 98 -57 145 -59 120 -187 248 -308 308 -47 23 -112 49 -145 58
-73 19 -241 26 -311 14z"/>
<path d="M2375 1909 c-317 -43 -601 -184 -830 -414 -162 -161 -285 -357 -348
-555 -43 -134 -46 -120 36 -181 281 -210 632 -356 1002 -416 153 -24 497 -24
650 0 376 61 710 200 1008 419 56 42 67 54 62 72 -76 271 -191 473 -380 661
-205 206 -439 333 -728 396 -108 23 -363 33 -472 18z"/>
</g>
</svg>
